<?xml version="1.0" encoding="utf-8"?>
<!-- Generator: Adobe Illustrator 19.0.0, SVG Export Plug-In . SVG Version: 6.00 Build 0)  -->
<svg version="1.1" id="Layer_1" xmlns="http://www.w3.org/2000/svg" xmlns:xlink="http://www.w3.org/1999/xlink" x="0px" y="0px"
	 viewBox="0 0 26.2 22" style="enable-background:new 0 0 26.2 22;" xml:space="preserve">
<style type="text/css">
	.st0{fill:#999999;}
</style>
<g id="XMLID_367_">
	<g id="XMLID_58_">
		<g id="XMLID_679_">
			<g id="XMLID_697_">
				<path id="XMLID_698_" class="st0" d="M20.3,8.9c0,0.2-0.2,0.4-0.4,0.4h-7.6c-0.2,0-0.4-0.2-0.4-0.4V8c0-0.2,0.2-0.4,0.4-0.4h7.6
					c0.2,0,0.4,0.2,0.4,0.4V8.9z"/>
			</g>
			<g id="XMLID_695_">
				<path id="XMLID_696_" class="st0" d="M23.7,11.4c0,0.2-0.2,0.4-0.4,0.4H14c-0.2,0-0.4-0.2-0.4-0.4v-0.9c0-0.2,0.2-0.4,0.4-0.4
					h9.3c0.2,0,0.4,0.2,0.4,0.4L23.7,11.4L23.7,11.4z"/>
			</g>
			<g id="XMLID_693_">
				<path id="XMLID_694_" class="st0" d="M26.2,14c0,0.2-0.2,0.4-0.4,0.4H15.6c-0.2,0-0.4-0.2-0.4-0.4v-0.9c0-0.2,0.2-0.4,0.4-0.4
					h10.1c0.2,0,0.4,0.2,0.4,0.4L26.2,14L26.2,14z"/>
			</g>
			<g id="XMLID_691_">
				<path id="XMLID_692_" class="st0" d="M26.2,16.5c0,0.2-0.2,0.4-0.4,0.4H15.6c-0.2,0-0.4-0.2-0.4-0.4v-0.9c0-0.2,0.2-0.4,0.4-0.4
					h10.1c0.2,0,0.4,0.2,0.4,0.4L26.2,16.5L26.2,16.5z"/>
			</g>
			<g id="XMLID_683_">
				<path id="XMLID_684_" class="st0" d="M23.7,19c0,0.2-0.2,0.4-0.4,0.4H14c-0.2,0-0.4-0.2-0.4-0.4v-0.9c0-0.2,0.2-0.4,0.4-0.4h9.3
					c0.2,0,0.4,0.2,0.4,0.4L23.7,19L23.7,19z"/>
			</g>
			<g id="XMLID_680_">
				<path id="XMLID_682_" class="st0" d="M20.3,21.6c0,0.2-0.2,0.4-0.4,0.4h-7.6c-0.2,0-0.4-0.2-0.4-0.4v-0.9c0-0.2,0.2-0.4,0.4-0.4
					h7.6c0.2,0,0.4,0.2,0.4,0.4V21.6z"/>
			</g>
		</g>
		<g id="XMLID_369_">
			<g id="XMLID_477_">
				<path id="XMLID_678_" class="st0" d="M5.9,1.3c0,0.2,0.2,0.4,0.4,0.4h7.6c0.2,0,0.4-0.2,0.4-0.4V0.4c0-0.2-0.2-0.4-0.4-0.4H6.4
					C6.1,0,5.9,0.2,5.9,0.4L5.9,1.3L5.9,1.3z"/>
			</g>
			<g id="XMLID_474_">
				<path id="XMLID_475_" class="st0" d="M2.5,3.8c0,0.2,0.2,0.4,0.4,0.4h9.3c0.2,0,0.4-0.2,0.4-0.4V2.9c0-0.2-0.2-0.4-0.4-0.4H3
					c-0.2,0-0.4,0.2-0.4,0.4L2.5,3.8L2.5,3.8z"/>
			</g>
			<g id="XMLID_457_">
				<path id="XMLID_75_" class="st0" d="M0,6.4c0,0.2,0.2,0.4,0.4,0.4h10.1c0.2,0,0.4-0.2,0.4-0.4V5.5c0-0.2-0.2-0.4-0.4-0.4H0.4
					C0.2,5.1,0,5.3,0,5.5V6.4z"/>
			</g>
			<g id="XMLID_74_">
				<path id="XMLID_456_" class="st0" d="M0,8.9c0,0.2,0.2,0.4,0.4,0.4h10.1c0.2,0,0.4-0.2,0.4-0.4V8c0-0.2-0.2-0.4-0.4-0.4H0.4
					C0.2,7.6,0,7.8,0,8V8.9z"/>
			</g>
			<g id="XMLID_434_">
				<path id="XMLID_435_" class="st0" d="M2.5,11.4c0,0.2,0.2,0.4,0.4,0.4h9.3c0.2,0,0.4-0.2,0.4-0.4v-0.9c0-0.2-0.2-0.4-0.4-0.4H3
					c-0.2,0-0.4,0.2-0.4,0.4L2.5,11.4L2.5,11.4z"/>
			</g>
			<g id="XMLID_370_">
				<path id="XMLID_371_" class="st0" d="M5.9,14c0,0.2,0.2,0.4,0.4,0.4h7.6c0.2,0,0.4-0.2,0.4-0.4v-0.9c0-0.2-0.2-0.4-0.4-0.4H6.4
					c-0.2,0-0.4,0.2-0.4,0.4L5.9,14L5.9,14z"/>
			</g>
		</g>
	</g>
</g>
</svg>
